<?xml version="1.0" encoding="UTF-8" standalone="no"?>
<svg
   xmlns:dc="http://purl.org/dc/elements/1.1/"
   xmlns:cc="http://creativecommons.org/ns#"
   xmlns:rdf="http://www.w3.org/1999/02/22-rdf-syntax-ns#"
   xmlns:svg="http://www.w3.org/2000/svg"
   xmlns="http://www.w3.org/2000/svg"
   xmlns:sodipodi="http://sodipodi.sourceforge.net/DTD/sodipodi-0.dtd"
   xmlns:inkscape="http://www.inkscape.org/namespaces/inkscape"
   sodipodi:docname="infinite_minesweeper.svg"
   width="64"
   height="64"
   viewBox="0 0 64 64"
   version="1.1"
   id="svg8"
   inkscape:version="1.0 (4035a4fb49, 2020-05-01)">
  <defs
     id="defs2" />
  <sodipodi:namedview
     inkscape:window-maximized="1"
     inkscape:window-y="-6"
     inkscape:window-x="-6"
     inkscape:window-height="650"
     inkscape:window-width="1280"
     id="base"
     pagecolor="#ffffff"
     bordercolor="#666666"
     borderopacity="1.0"
     inkscape:pageopacity="0.0"
     inkscape:pageshadow="2"
     inkscape:zoom="1.810061"
     inkscape:cx="-68.08027"
     inkscape:cy="17.881944"
     inkscape:document-units="px"
     inkscape:current-layer="layer1"
     inkscape:document-rotation="0"
     showgrid="false"
     units="px"
     inkscape:pagecheckerboard="true" />
  <metadata
     id="metadata5">
    <rdf:RDF>
      <cc:Work
         rdf:about="">
        <dc:format>image/svg+xml</dc:format>
        <dc:type
           rdf:resource="http://purl.org/dc/dcmitype/StillImage" />
        <dc:title></dc:title>
      </cc:Work>
    </rdf:RDF>
  </metadata>
  <g
     inkscape:label="Layer 1"
     inkscape:groupmode="layer"
     id="layer1">
    <rect
       y="8"
       x="8"
       height="48"
       width="48"
       id="rect863"
       style="fill:#c0c0c0;fill-opacity:1;stroke:none;stroke-width:6;stroke-linecap:round;stroke-linejoin:round;stroke-dashoffset:1" />
    <path
       sodipodi:nodetypes="sscsssssssscccccccccccccccccc"
       id="path846"
       d="m 14,14 c 2.54436,-2.54436 12.38314,-2.8208 15.77749,-0.4433 2.01155,1.40894 2.43347,1.40894 4.44502,0 C 37.61686,11.1792 47.45564,11.45564 50,14 c 1.83333,1.83333 2,3.33333 2,18 0,14.66667 -0.16667,16.16667 -2,18 -2.54436,2.54436 -12.38314,2.8208 -15.77749,0.4433 -2.01155,-1.40894 -2.43347,-1.40894 -4.44502,0 C 26.38314,52.8208 16.54436,52.54436 14,50 12.16667,48.16667 12,46.66667 12,32 12,17.33333 12.16667,15.83333 14,14 Z m 10,26 h 4 v -8 -8 h -4 -4 v 8 8 z m 16,0 h 4 v -8 -8 h -4 -4 v 8 8 z"
       style="fill:#800080;fill-opacity:1" />
    <path
       sodipodi:nodetypes="ccccccc"
       id="path869"
       d="M 0,0 H 64 L 56,8 H 8 v 48 l -8,8 z"
       style="fill:#ffffff;stroke:none;stroke-width:1px;stroke-linecap:butt;stroke-linejoin:miter;stroke-opacity:1;fill-opacity:1" />
    <path
       style="fill:#808080;fill-opacity:1;stroke:none;stroke-width:1px;stroke-linecap:butt;stroke-linejoin:miter;stroke-opacity:1"
       d="M 64,64 V 0 L 56,8 V 56 H 8 l -8,8 z"
       id="path869-4"
       sodipodi:nodetypes="ccccccc" />
  </g>
</svg>
